<svg version="1.0" xmlns="http://www.w3.org/2000/svg" viewBox="0 0 100 100">
  <path d="M37.7 1.5C16 7.6 1.2 25.9.4 47.6c-.5 14.3 3.6 25.9 12.9 36C20.2 91.2 34 99.3 34 95.7c0-.8 2.7-11.9 6-24.7 3.4-12.8 5.9-23.4 5.7-23.6-.1-.2-3.9.8-8.2 2.1-4.4 1.4-8.1 2.5-8.2 2.5-.8 0 .1-3.9 3.3-14.1C39.1 17.4 44.8 8.3 54 3.7c4.2-2.1 4.6-2.5 2.7-2.9-4.9-.9-14.5-.6-19 .7zM74.5 12.6c-6.6 3.4-11.6 10.7-15 22.1-1.2 4.1-1.2 4.5.3 4 .9-.3 5.7-2 10.6-3.7 4.9-1.7 9.5-3 10.1-2.8 1 .2-6.5 12.9-10.2 17.3-.4.5-4.3 6.2-8.6 12.5S50.1 79 45.4 85.8c-9.9 14.3-10.1 13.7 5.1 13.7 7.9-.1 11.3-.6 16-2.4C74.8 94 81.1 89.7 87 83.4c17.6-19.4 17.1-49.3-1.3-68.2-4.5-4.5-6.6-5-11.2-2.6z"/>
</svg>
